<svg xmlns="http://www.w3.org/2000/svg" xmlns:se="http://svg-edit.googlecode.com" xmlns:xlink="http://www.w3.org/1999/xlink" xmlns:dc="http://purl.org/dc/elements/1.1/" xmlns:cc="http://creativecommons.org/ns#" xmlns:rdf="http://www.w3.org/1999/02/22-rdf-syntax-ns#" xmlns:inkscape="http://www.inkscape.org/namespaces/inkscape" width="196" height="196">                                    <title>my vector image</title>                                    <!-- Created with Vector Paint - http://www.vectorpaint.yaks.com/ https://chrome.google.com/webstore/detail/hnbpdiengicdefcjecjbnjnoifekhgdo -->                                    <rect id="backgroundrect" width="100%" height="100%" x="0" y="0" fill="#FFFFFF" stroke="none" style="" class=""/>                                <g class="currentLayer" style=""><title>Layer 1</title><path fill="none" fill-opacity="1" stroke="#222222" stroke-opacity="1" stroke-width="2" stroke-dasharray="none" stroke-linejoin="round" stroke-linecap="butt" stroke-dashoffset="" fill-rule="nonzero" opacity="1" marker-start="" marker-mid="" marker-end="" d="M45,59 C45,39.66298342541437 63.348066298342545,24 86,24 C108.65193370165746,24 127,39.66298342541437 127,59 C127,78.33701657458563 108.65193370165746,94 86,94 C63.348066298342545,94 45,78.33701657458563 45,59 Z" id="svg_1" class=""/><path fill="none" fill-opacity="1" stroke="#222222" stroke-opacity="1" stroke-width="2" stroke-dasharray="none" stroke-linejoin="round" stroke-linecap="butt" stroke-dashoffset="" fill-rule="nonzero" opacity="1" marker-start="" marker-mid="" marker-end="" d="M46.84615397453308,140.20879077911377 C46.84615397453308,114.7944261382298 64.52294955464357,94.20879077911377 86.34615397453308,94.20879077911377 C108.16935839442259,94.20879077911377 125.84615397453308,114.7944261382298 125.84615397453308,140.20879077911377 C125.84615397453308,165.62315541999774 108.16935839442259,186.20879077911377 86.34615397453308,186.20879077911377 C64.52294955464357,186.20879077911377 46.84615397453308,165.62315541999774 46.84615397453308,140.20879077911377 z" id="svg_3" class=""/><polyline fill="none" stroke="#222222" stroke-width="2" stroke-linejoin="round" stroke-dashoffset="" fill-rule="nonzero" marker-start="" marker-mid="" marker-end="" id="svg_2" points="85.91208301473227,58.16482924971632 85.36263244512799,58.16482924971632 " style="color: rgb(0, 0, 0);"/><polyline fill="none" stroke="#222222" stroke-width="2" stroke-linejoin="round" stroke-dashoffset="" fill-rule="nonzero" marker-start="" marker-mid="" marker-end="" id="svg_4" points="71.0769176354168,58.16482924971632 71.0769176354168,57.61537868011206 71.0769176354168,56.5164775409035 71.0769176354168,55.96702697129922 72.17581877462533,55.96702697129922 72.17581877462533,54.86812583209067 71.62636820502111,54.86812583209067 71.62636820502111,55.41757640169496 70.52746706581252,55.41757640169496 70.52746706581252,56.5164775409035 69.42856592660394,56.5164775409035 69.42856592660394,58.16482924971632 68.32966478739542,58.16482924971632 68.32966478739542,57.06592811050777 68.8791153569997,57.06592811050777 69.97801649620823,57.06592811050777 70.52746706581252,57.06592811050777 71.0769176354168,55.96702697129922 71.0769176354168,57.06592811050777 70.52746706581252,58.16482924971632 69.42856592660394,58.16482924971632 69.42856592660394,59.26373038892487 67.78021421779113,59.26373038892487 67.23076364818684,59.26373038892487 66.6813130785826,59.26373038892487 66.6813130785826,58.71427981932061 67.23076364818684,57.61537868011206 67.23076364818684,57.06592811050777 68.32966478739542,57.06592811050777 69.97801649620823,57.06592811050777 70.52746706581252,57.06592811050777 71.62636820502111,57.06592811050777 71.62636820502111,57.61537868011206 70.52746706581252,59.26373038892487 69.42856592660394,59.26373038892487 68.32966478739542,59.26373038892487 67.23076364818684,59.26373038892487 66.6813130785826,59.26373038892487 65.58241193937403,59.26373038892487 65.58241193937403,58.16482924971632 65.58241193937403,57.06592811050777 66.6813130785826,57.06592811050777 66.6813130785826,55.96702697129922 67.23076364818684,55.96702697129922 67.23076364818684,54.86812583209067 68.8791153569997,54.86812583209067 69.97801649620823,54.86812583209067 71.0769176354168,54.86812583209067 72.17581877462533,54.86812583209067 72.17581877462533,55.41757640169496 72.17581877462533,56.5164775409035 72.17581877462533,57.61537868011206 72.17581877462533,58.71427981932061 71.0769176354168,58.71427981932061 71.0769176354168,59.26373038892487 69.97801649620823,59.26373038892487 68.8791153569997,60.91208209773771 67.78021421779113,60.91208209773771 67.78021421779113,59.81318095852916 67.23076364818684,59.81318095852916 67.23076364818684,58.71427981932061 65.58241193937403,58.71427981932061 65.58241193937403,57.06592811050777 65.58241193937403,56.5164775409035 66.6813130785826,56.5164775409035 66.6813130785826,54.86812583209067 67.23076364818684,53.76922469288212 68.8791153569997,53.76922469288212 70.52746706581252,53.76922469288212 71.62636820502111,53.76922469288212 71.62636820502111,54.86812583209067 71.62636820502111,55.96702697129922 71.62636820502111,56.5164775409035 71.62636820502111,58.16482924971632 70.52746706581252,58.16482924971632 70.52746706581252,59.26373038892487 68.8791153569997,59.26373038892487 67.78021421779113,60.36263152813345 66.6813130785826,60.36263152813345 66.13186250897832,60.36263152813345 65.03296136976974,60.36263152813345 65.03296136976974,59.26373038892487 63.384609660956926,59.26373038892487 63.384609660956926,58.16482924971632 64.4835108001655,57.06592811050777 64.4835108001655,56.5164775409035 65.58241193937403,56.5164775409035 " style="color: rgb(0, 0, 0);"/><polyline fill="none" stroke="#222222" stroke-width="2" stroke-linejoin="round" stroke-dashoffset="" fill-rule="nonzero" marker-start="" marker-mid="" marker-end="" id="svg_5" points="100.19779782444346,54.86812583209067 99.09889668523488,54.86812583209067 98.54944611563059,54.86812583209067 97.45054497642207,54.86812583209067 97.45054497642207,55.96702697129922 96.90109440681778,55.96702697129922 96.90109440681778,57.06592811050777 95.8021932676092,57.06592811050777 95.8021932676092,58.16482924971632 96.35164383721349,58.16482924971632 96.90109440681778,58.16482924971632 97.9999955460263,58.16482924971632 98.54944611563059,58.16482924971632 99.64834725483917,58.16482924971632 99.64834725483917,57.06592811050777 100.74724839404769,57.06592811050777 100.74724839404769,55.41757640169496 101.84614953325627,54.31867526248641 101.84614953325627,53.21977412327786 101.84614953325627,52.67032355367357 101.29669896365198,52.67032355367357 100.19779782444346,52.67032355367357 100.19779782444346,53.76922469288212 99.09889668523488,53.76922469288212 99.09889668523488,55.41757640169496 99.09889668523488,56.5164775409035 97.9999955460263,56.5164775409035 97.9999955460263,58.71427981932061 97.9999955460263,59.81318095852916 97.9999955460263,60.36263152813345 98.54944611563059,60.36263152813345 99.64834725483917,60.36263152813345 100.74724839404769,59.26373038892487 101.29669896365198,58.71427981932061 101.29669896365198,57.61537868011206 102.39560010286056,57.61537868011206 102.39560010286056,55.96702697129922 102.39560010286056,54.86812583209067 101.84614953325627,54.86812583209067 101.29669896365198,54.86812583209067 100.19779782444346,54.86812583209067 99.64834725483917,54.86812583209067 99.64834725483917,56.5164775409035 99.64834725483917,57.61537868011206 99.64834725483917,58.16482924971632 100.74724839404769,58.16482924971632 101.29669896365198,58.16482924971632 101.84614953325627,58.16482924971632 101.84614953325627,57.06592811050777 103.49450124206908,55.41757640169496 103.49450124206908,54.86812583209067 103.49450124206908,53.76922469288212 102.94505067246479,53.76922469288212 101.84614953325627,53.76922469288212 101.84614953325627,54.86812583209067 100.74724839404769,54.86812583209067 100.74724839404769,55.96702697129922 99.64834725483917,55.96702697129922 99.64834725483917,57.06592811050777 99.64834725483917,58.16482924971632 100.74724839404769,58.16482924971632 101.84614953325627,58.16482924971632 101.84614953325627,57.06592811050777 102.39560010286056,57.06592811050777 102.39560010286056,55.96702697129922 " style="color: rgb(0, 0, 0);"/><polyline fill="none" stroke="#222222" stroke-width="2" stroke-linejoin="round" stroke-dashoffset="" fill-rule="nonzero" marker-start="" marker-mid="" marker-end="" id="svg_6" points="53.494499408079946,107.06592994449693 52.395598268871424,107.06592994449693 52.395598268871424,105.96702880528835 51.296697129662846,105.96702880528835 49.648345420850035,105.96702880528835 49.098894851245745,105.96702880528835 48.549444281641456,105.96702880528835 47.450543142432934,105.96702880528835 45.252740864015834,108.16483108370547 41.956037446390155,111.46153450133113 40.307685737577344,113.10988621014394 33.164828332721754,122.99999646302092 31.516476623908886,126.2966998806466 29.868124915096075,130.1428538678765 27.670322636678975,133.98900785510642 26.021970927866164,135.6373595639193 26.021970927866164,137.2857112727321 24.923069788657585,138.9340629815449 24.923069788657585,139.4835135511492 24.923069788657585,140.58241469035778 24.923069788657585,141.6813158295663 24.923069788657585,144.4285686775877 24.923069788657585,146.0769203864005 24.923069788657585,147.17582152560908 24.923069788657585,148.8241732344219 24.923069788657585,149.92307437363047 26.021970927866164,149.92307437363047 26.021970927866164,151.021975512839 27.120872067074686,151.021975512839 27.120872067074686,152.67032722165186 28.219773206283264,152.67032722165186 29.31867434549179,152.67032722165186 29.868124915096075,152.67032722165186 29.868124915096075,153.2197777912561 30.967026054304654,153.2197777912561 30.967026054304654,154.31867893046467 32.065927193513176,154.31867893046467 33.164828332721754,154.31867893046467 33.164828332721754,155.4175800696732 34.263729471930276,155.4175800696732 35.912081180743144,157.06593177848606 36.461531750347376,157.06593177848606 36.461531750347376,158.16483291769458 38.109883459160244,158.16483291769458 39.208784598368766,158.16483291769458 39.208784598368766,159.26373405690316 40.85713630718158,159.26373405690316 40.85713630718158,160.91208576571597 41.956037446390155,160.91208576571597 43.054938585598734,162.01098690492455 44.153839724807256,162.01098690492455 44.153839724807256,163.65933861373736 45.80219143362006,163.65933861373736 46.901092572828645,163.65933861373736 46.901092572828645,164.75823975294588 47.99999371203717,164.75823975294588 49.098894851245745,165.8571408921545 49.098894851245745,166.95604203136307 50.197795990454324,166.95604203136307 50.197795990454324,168.05494317057156 51.296697129662846,168.05494317057156 52.395598268871424,169.70329487938437 " style="color: rgb(0, 0, 0);"/><polyline fill="none" stroke="#222222" stroke-width="2" stroke-linejoin="round" stroke-dashoffset="" fill-rule="nonzero" marker-start="" marker-mid="" marker-end="" id="svg_7" points="111.18680921652896,103.76922652687125 111.18680921652896,103.21977595726696 111.73625978613325,103.21977595726696 118.87911719098884,104.86812766607983 122.17582060861446,106.51647937489264 123.82417231742733,106.51647937489264 127.67032630465724,108.16483108370547 128.21977687426153,108.16483108370547 129.31867801347005,108.16483108370547 129.31867801347005,109.26373222291403 130.96702972228292,109.26373222291403 130.96702972228292,110.36263336212255 130.96702972228292,111.46153450133113 130.96702972228292,112.56043564053965 132.61538143109573,115.85713905816533 134.26373313990854,122.99999646302092 135.36263427911712,126.84615045025083 137.56043655753416,130.6923044374808 140.85713997515992,136.18681013352352 140.85713997515992,138.38461241194068 143.05494225357694,143.8791181079834 143.05494225357694,145.52746981679627 143.05494225357694,146.6263709560048 143.05494225357694,148.2747226648176 143.05494225357694,149.37362380402618 143.05494225357694,150.4725249432347 141.40659054476413,151.57142608244328 141.40659054476413,153.2197777912561 140.30768940555555,153.2197777912561 139.20878826634709,153.2197777912561 138.1098871271385,154.31867893046467 135.36263427911712,155.96703063927748 133.7142825703043,155.96703063927748 132.61538143109573,155.96703063927748 131.51648029188715,155.96703063927748 130.96702972228292,155.96703063927748 129.31867801347005,157.6153823480903 127.67032630465724,157.6153823480903 126.02197459584443,157.6153823480903 123.82417231742733,159.26373405690316 122.72527117821875,160.91208576571597 121.62637003901023,160.91208576571597 120.52746889980165,162.01098690492455 119.42856776059313,163.10988804413304 118.32966662138455,163.10988804413304 " style="color: rgb(0, 0, 0);"/><polyline fill="none" stroke="#222222" stroke-width="2" stroke-linejoin="round" stroke-dashoffset="" fill-rule="nonzero" marker-start="" marker-mid="" marker-end="" id="svg_8" points="89.75823700196219,186.73626253711694 88.65933586275361,186.73626253711694 88.10988529314938,186.73626253711694 88.10988529314938,188.3846142459298 87.0109841539408,191.13186709395114 85.36263244512799,192.780218802764 85.36263244512799,193.87911994197253 84.2637313059194,193.87911994197253 84.2637313059194,194.9780210811811 83.1648301667109,194.9780210811811 83.1648301667109,196.62637278999392 " style="color: rgb(0, 0, 0);"/><polyline fill="none" stroke="#222222" stroke-width="2" stroke-linejoin="round" stroke-dashoffset="" fill-rule="nonzero" marker-start="" marker-mid="" marker-end="" id="svg_9" points="101.84614953325627,178.49450399305283 101.84614953325627,179.59340513226135 101.84614953325627,180.69230627146993 101.84614953325627,181.24175684107422 102.94505067246479,182.89010854988703 102.94505067246479,183.98900968909555 102.94505067246479,185.08791082830413 104.04395181167337,185.08791082830413 104.04395181167337,186.18681196751265 104.04395181167337,187.28571310672123 104.04395181167337,187.83516367632552 104.04395181167337,188.93406481553407 104.59340238127766,190.0329659547426 106.24175409009045,190.0329659547426 106.24175409009045,191.13186709395114 106.24175409009045,192.780218802764 106.24175409009045,193.32966937236824 " style="color: rgb(0, 0, 0);"/></g></svg>